<svg width="154" height="14" viewBox="0 0 154 14" fill="none" xmlns="http://www.w3.org/2000/svg">
<path d="M0.797784 2.07686C0.797784 1.30366 0.511287 0.570912 0 0H7.18446C9.1106 0 10.6841 1.60485 10.6841 3.56932C10.6841 5.5338 9.1106 7.13865 7.18446 7.13865H8.77121L11.7993 13.2479H6.7437C7.13157 12.7803 7.2638 12.0476 6.99934 11.4722L4.85282 7.13865H4.30186V11.1755C4.30186 11.9487 4.58836 12.6859 5.09965 13.2524H0C0.511287 12.6859 0.793376 11.9487 0.797784 11.1755V2.07686ZM7.18446 2.20273C7.18446 1.23623 6.40872 0.445042 5.46107 0.445042H4.29745V6.68911H5.46107C6.40872 6.68911 7.18446 5.89793 7.18446 4.93142V2.19824V2.20273Z" fill="#262424"/>
<path d="M12.3017 9.98423V4.2751C12.3017 3.5019 12.0152 2.76915 11.5039 2.19824H15.8278C15.8278 5.21913 15.797 8.24002 15.797 11.2609C15.7837 11.3238 15.7749 11.3913 15.7749 11.4587C15.7749 11.9532 16.1672 12.3623 16.6609 12.3623C17.1545 12.3623 17.5468 11.9577 17.5468 11.4587V2.19824H21.8442C21.333 2.76466 21.0509 3.5019 21.0465 4.2751V11.1755C21.0465 11.9487 21.333 12.6814 21.8442 13.2524H17.5468V12.4971C15.4884 14.2458 12.2973 12.7759 12.2973 9.98423H12.3017Z" fill="#262424"/>
<path d="M22.4264 6.61269C22.4176 4.88647 23.3961 3.36703 24.8418 2.64328C27.6671 1.23173 31.0478 3.3041 31.0478 6.59471V11.171C31.0478 11.9442 31.3343 12.6769 31.8455 13.2479H27.5481V11.3733C26.8649 12.2903 25.8247 13.2479 24.4495 13.2479C21.8049 13.2479 21.611 9.71 23.4975 8.56368C24.9564 7.6736 26.7944 6.81498 27.5481 6.47333V4.05033C27.5481 3.27712 26.9354 2.64777 26.1773 2.64328C25.0622 2.63428 24.4054 3.91097 25.0225 4.84151L22.422 6.61269H22.4264ZM27.5525 10.2V7.11617C23.5063 9.92128 26.3184 11.67 27.5525 10.2Z" fill="#262424"/>
<path d="M41.7051 5.46642V11.1755C41.7051 11.9487 41.9916 12.6815 42.5029 13.2524H37.4121C37.9234 12.686 38.2055 11.9487 38.2099 11.1755V4.18974C38.2231 4.1268 38.2319 4.05937 38.2319 3.99194C38.2319 3.49745 37.8396 3.08837 37.346 3.08837C36.8523 3.08837 36.46 3.49296 36.46 3.99194V11.18C36.46 11.9532 36.7465 12.686 37.2578 13.2569H32.167C32.6783 12.6905 32.9604 11.9532 32.9648 11.18V4.27965C32.9648 3.50644 32.6783 2.7737 32.167 2.20278H36.4644V2.95801C38.5184 1.20931 41.714 2.67929 41.714 5.46642H41.7051Z" fill="#262424"/>
<path d="M43.0631 6.61269C43.0543 4.88647 44.0328 3.36703 45.4785 2.64328C48.3038 1.23173 51.6845 3.3041 51.6845 6.59471V11.171C51.6845 11.9442 51.971 12.6769 52.4823 13.2479H48.1848V11.3733C47.5016 12.2903 46.4614 13.2479 45.0862 13.2479C42.4416 13.2479 42.2477 9.71 44.1342 8.56368C45.5931 7.6736 47.4311 6.81498 48.1848 6.47333V4.05033C48.1848 3.27712 47.5721 2.64777 46.814 2.64328C45.6989 2.63428 45.0422 3.91097 45.6592 4.84151L43.0587 6.61269H43.0631ZM48.1892 10.2V7.11617C44.143 9.92128 46.9551 11.67 48.1892 10.2Z" fill="#262424"/>
<path d="M56.4912 6.43913C56.4912 6.43913 59.1226 11.1907 62.3931 12.0943C65.6635 13.0024 65.6856 11.3661 64.9054 10.7457C64.1253 10.1253 56.4868 6.69986 56.4868 3.51714C56.4868 0.680561 58.5408 0.105153 61.2515 0.0152452C63.2966 -0.0521854 66.7258 0.90533 66.7258 2.43825V5.75134C66.7258 5.75134 60.8284 -0.636583 58.8978 0.932301C56.2709 3.0676 66.7258 4.96915 66.7258 9.57241C66.7258 12.0269 65.2228 13.2451 61.7363 13.2451C58.2499 13.2451 56.4824 12.0673 56.4824 12.0673V6.43464L56.4912 6.43913Z" fill="#262424"/>
<path d="M78.3091 7.72489C78.3091 10.7772 75.8849 13.2497 72.8921 13.2497C69.8993 13.2497 67.4751 10.7772 67.4751 7.72489C67.4751 4.67253 69.8993 2.20007 72.8921 2.20007C75.8849 2.20007 78.3091 4.67253 78.3091 7.72489ZM75.0739 3.39584C74.0689 2.73053 72.2794 4.13308 71.0761 6.52462C69.8729 8.91616 69.7098 11.3976 70.7147 12.0629C71.7197 12.7282 73.5092 11.3257 74.7125 8.93414C75.9157 6.5426 76.0788 4.06116 75.0739 3.39584Z" fill="#262424"/>
<path d="M79.4994 9.98606V4.27694C79.4994 3.50373 79.2129 2.77099 78.7017 2.20007H83.0256C83.0256 5.22096 82.9947 8.24185 82.9947 11.2627C82.9815 11.3257 82.9727 11.3931 82.9727 11.4605C82.9727 11.955 83.3649 12.3641 83.8586 12.3641C84.3523 12.3641 84.7445 11.9595 84.7445 11.4605V2.20007H89.042C88.5307 2.76649 88.2486 3.50373 88.2442 4.27694V11.1773C88.2442 11.9505 88.5307 12.6833 89.042 13.2542H84.7445V12.499C82.6862 14.2477 79.495 12.7777 79.495 9.98606H79.4994Z" fill="#262424"/>
<path d="M93.7271 0.00183105V11.1728C93.7271 11.946 94.0136 12.6788 94.5249 13.2497H89.4341C89.9454 12.6833 90.2275 11.946 90.2319 11.1728V2.70355C90.2319 1.93035 89.9454 1.1931 89.4341 0.626687L93.7315 0.00183105H93.7271Z" fill="#262424"/>
<path d="M98.5337 6.43968C98.5337 6.43968 101.165 11.1913 104.436 12.0949C107.706 13.0029 107.728 11.3666 106.948 10.7462C106.168 10.1259 98.5293 6.70041 98.5293 3.51769C98.5293 0.68111 100.583 0.105702 103.294 0.0157945C105.339 -0.0516361 108.768 0.905878 108.768 2.4388V5.75189C108.768 5.75189 102.871 -0.636034 100.94 0.932851C98.3133 3.06815 108.768 4.96969 108.768 9.57296C108.768 12.0274 107.265 13.2457 103.779 13.2457C100.292 13.2457 98.5249 12.0679 98.5249 12.0679V6.43518L98.5337 6.43968Z" fill="#262424"/>
<path d="M113.74 10.6833C113.74 11.7037 114.93 12.2342 115.666 11.5554C115.305 12.3555 114.6 12.9624 113.74 13.1692C111.964 13.6008 110.24 12.2297 110.24 10.3506V3.6525L109.35 2.8793H110.24L113.74 0.0022583V2.8793H115.666V3.6525H113.74V10.6833Z" fill="#262424"/>
<path d="M116.72 9.98197V4.27285C116.72 3.49964 116.433 2.7669 115.922 2.19598H120.246C120.246 5.21687 120.215 8.23776 120.215 11.2587C120.202 11.3216 120.193 11.389 120.193 11.4564C120.193 11.9509 120.585 12.36 121.079 12.36C121.572 12.36 121.965 11.9554 121.965 11.4564V2.19598H126.262C125.751 2.7624 125.469 3.49964 125.464 4.27285V11.1732C125.464 11.9464 125.751 12.6792 126.262 13.2501H121.965V12.4949C119.906 14.2436 116.715 12.7736 116.715 9.98197H116.72Z" fill="#262424"/>
<path d="M137.193 0.0022583C136.682 0.568675 136.4 1.30592 136.396 2.07912V11.1778C136.396 11.951 136.682 12.6837 137.193 13.2546H132.896V11.7037C132.195 12.7152 131.217 13.3265 130.146 13.2456C128.197 13.0973 126.646 10.6833 126.646 7.7298C126.646 4.77634 128.272 2.20499 130.335 2.20499C131.331 2.20499 132.235 2.79388 132.896 3.75589V2.08361C132.896 1.31041 132.61 0.577667 132.098 0.00675463H137.189L137.193 0.0022583ZM131.521 12.2297C132.279 12.2297 132.896 10.2112 132.896 7.72081C132.896 5.23037 132.279 3.21195 131.521 3.21195C130.763 3.21195 130.146 5.23037 130.146 7.72081C130.146 10.2112 130.763 12.2297 131.521 12.2297Z" fill="#262424"/>
<path d="M141.874 11.1733C141.874 11.9465 142.161 12.6792 142.672 13.2501H137.581C138.092 12.6837 138.374 11.9465 138.379 11.1733V4.98313C138.379 4.20993 138.092 3.47268 137.581 2.90627H142.672C142.161 3.47268 141.879 4.20993 141.874 4.98313V11.1733ZM140.124 0.0022583C141.09 0.0022583 141.874 0.49675 141.874 1.09913C141.874 1.70151 141.09 2.196 140.124 2.196C139.159 2.196 138.374 1.70151 138.374 1.09913C138.374 0.49675 139.159 0.0022583 140.124 0.0022583Z" fill="#262424"/>
<path d="M153.867 7.72531C153.867 10.7777 151.443 13.2501 148.45 13.2501C145.457 13.2501 143.033 10.7777 143.033 7.72531C143.033 4.67296 145.457 2.2005 148.45 2.2005C151.443 2.2005 153.867 4.67296 153.867 7.72531ZM150.628 3.39177C149.623 2.72646 147.833 4.12902 146.63 6.52055C145.427 8.91209 145.263 11.3935 146.268 12.0589C147.273 12.7242 149.063 11.3216 150.266 8.93007C151.469 6.53853 151.633 4.05709 150.628 3.39177Z" fill="#262424"/>
</svg>
