<?xml version="1.0" encoding="UTF-8"?>
<svg id="Layer_1" xmlns="http://www.w3.org/2000/svg" version="1.1" viewBox="0 0 126.3 105.26">
  <!-- Generator: Adobe Illustrator 30.0.0, SVG Export Plug-In . SVG Version: 2.1.1 Build 123)  -->
  <defs>
    <style>
      .st0 {
        fill: #961728;
      }
    </style>
  </defs>
  <path class="st0" d="M1.81,4.62c0-1.72-.65-3.35-1.81-4.62h16.3c4.37,0,7.94,3.57,7.94,7.94s-3.57,7.94-7.94,7.94h3.6l6.87,13.59h-11.47c.88-1.04,1.18-2.67.58-3.95l-4.87-9.64h-1.25v8.98c0,1.72.65,3.36,1.81,4.62H0c1.16-1.26,1.8-2.9,1.81-4.62V4.62ZM16.3,4.9c0-2.15-1.76-3.91-3.91-3.91h-2.64v13.89h2.64c2.15,0,3.91-1.76,3.91-3.91v-6.08Z"/>
  <path class="st0" d="M27.91,22.21v-12.7c0-1.72-.65-3.35-1.81-4.62h9.81c0,6.72-.07,13.44-.07,20.16-.03.14-.05.29-.05.44,0,1.1.89,2.01,2.01,2.01s2.01-.9,2.01-2.01V4.89h9.75c-1.16,1.26-1.8,2.9-1.81,4.62v15.35c0,1.72.65,3.35,1.81,4.62h-9.75v-1.68c-4.67,3.89-11.91.62-11.91-5.59Z"/>
  <path class="st0" d="M50.88,14.71c-.02-3.84,2.2-7.22,5.48-8.83,6.41-3.14,14.08,1.47,14.08,8.79v10.18c0,1.72.65,3.35,1.81,4.62h-9.75v-4.17c-1.55,2.04-3.91,4.17-7.03,4.17-6,0-6.44-7.87-2.16-10.42,3.31-1.98,7.48-3.89,9.19-4.65v-5.39c0-1.72-1.39-3.12-3.11-3.13-2.53-.02-4.02,2.82-2.62,4.89l-5.9,3.94ZM62.51,22.69v-6.86c-9.18,6.24-2.8,10.13,0,6.86Z"/>
  <path class="st0" d="M94.62,12.16v12.7c0,1.72.65,3.35,1.81,4.62h-11.55c1.16-1.26,1.8-2.9,1.81-4.62v-15.54c.03-.14.05-.29.05-.44,0-1.1-.89-2.01-2.01-2.01s-2.01.9-2.01,2.01v15.99c0,1.72.65,3.35,1.81,4.62h-11.55c1.16-1.26,1.8-2.9,1.81-4.62v-15.35c0-1.72-.65-3.35-1.81-4.62h9.75v1.68c4.66-3.89,11.91-.62,11.91,5.58Z"/>
  <path class="st0" d="M97.7,14.71c-.02-3.84,2.2-7.22,5.48-8.83,6.41-3.14,14.08,1.47,14.08,8.79v10.18c0,1.72.65,3.35,1.81,4.62h-9.75v-4.17c-1.55,2.04-3.91,4.17-7.03,4.17-6,0-6.44-7.87-2.16-10.42,3.31-1.98,7.48-3.89,9.19-4.65v-5.39c0-1.72-1.39-3.12-3.11-3.13-2.53-.02-4.02,2.82-2.62,4.89l-5.9,3.94ZM109.33,22.69v-6.86c-9.18,6.24-2.8,10.13,0,6.86Z"/>
  <path class="st0" d="M.76,52.21s5.97,10.57,13.39,12.58c7.42,2.02,7.47-1.62,5.7-3-1.77-1.38-19.1-9-19.1-16.08,0-6.31,4.66-7.59,10.81-7.79,4.64-.15,12.42,1.98,12.42,5.39v7.37s-13.38-14.21-17.76-10.72c-5.96,4.75,17.76,8.98,17.76,19.22,0,5.46-3.41,8.17-11.32,8.17s-11.92-2.62-11.92-2.62v-12.53Z"/>
  <path class="st0" d="M50.26,55.07c0,6.79-5.5,12.29-12.29,12.29s-12.29-5.5-12.29-12.29,5.5-12.29,12.29-12.29,12.29,5.5,12.29,12.29ZM42.92,45.44c-2.28-1.48-6.34,1.64-9.07,6.96-2.73,5.32-3.1,10.84-.82,12.32,2.28,1.48,6.34-1.64,9.07-6.96s3.1-10.84.82-12.32Z"/>
  <path class="st0" d="M52.96,60.1v-12.7c0-1.72-.65-3.35-1.81-4.62h9.81c0,6.72-.07,13.44-.07,20.16-.03.14-.05.29-.05.44,0,1.1.89,2.01,2.01,2.01s2.01-.9,2.01-2.01v-20.6h9.75c-1.16,1.26-1.8,2.9-1.81,4.62v15.35c0,1.72.65,3.35,1.81,4.62h-9.75v-1.68c-4.67,3.89-11.91.62-11.91-5.59Z"/>
  <path class="st0" d="M85.24,37.89v24.85c0,1.72.65,3.35,1.81,4.62h-11.55c1.16-1.26,1.8-2.9,1.81-4.62v-18.84c0-1.72-.65-3.36-1.81-4.62l9.75-1.39Z"/>
  <path class="st0" d="M.76,90.11s5.97,10.57,13.39,12.58c7.42,2.02,7.47-1.62,5.7-3-1.77-1.38-19.1-9-19.1-16.08,0-6.31,4.66-7.59,10.81-7.79,4.64-.15,12.42,1.98,12.42,5.39v7.37s-13.38-14.21-17.76-10.72c-5.96,4.75,17.76,8.98,17.76,19.22,0,5.46-3.41,8.17-11.32,8.17s-11.92-2.62-11.92-2.62v-12.53Z"/>
  <path class="st0" d="M35.26,99.55c0,2.27,2.7,3.45,4.37,1.94-.82,1.78-2.42,3.13-4.37,3.59-4.03.96-7.94-2.09-7.94-6.27v-14.9l-2.02-1.72h2.02l7.94-6.4v6.4h4.37v1.72h-4.37v15.64Z"/>
  <path class="st0" d="M42.02,97.99v-12.7c0-1.72-.65-3.35-1.81-4.62h9.81c0,6.72-.07,13.44-.07,20.16-.03.14-.05.29-.05.44,0,1.1.89,2.01,2.01,2.01s2.01-.9,2.01-2.01v-20.6h9.75c-1.16,1.26-1.8,2.9-1.81,4.62v15.35c0,1.72.65,3.35,1.81,4.62h-9.75v-1.68c-4.67,3.89-11.91.62-11.91-5.59Z"/>
  <path class="st0" d="M88.47,75.79c-1.16,1.26-1.8,2.9-1.81,4.62v20.24c0,1.72.65,3.35,1.81,4.62h-9.75v-3.45c-1.59,2.25-3.81,3.61-6.24,3.43-4.42-.33-7.94-5.7-7.94-12.27s3.69-12.29,8.37-12.29c2.26,0,4.31,1.31,5.81,3.45v-3.72c0-1.72-.65-3.35-1.81-4.62h11.55ZM75.6,102.99c1.72,0,3.12-4.49,3.12-10.03s-1.4-10.03-3.12-10.03-3.12,4.49-3.12,10.03c0,5.54,1.4,10.03,3.12,10.03Z"/>
  <path class="st0" d="M99.09,100.64c0,1.72.65,3.35,1.81,4.62h-11.55c1.16-1.26,1.8-2.9,1.81-4.62v-13.77c0-1.72-.65-3.36-1.81-4.62h11.55c-1.16,1.26-1.8,2.9-1.81,4.62v13.77ZM95.12,75.79c2.19,0,3.97,1.1,3.97,2.44s-1.78,2.44-3.97,2.44-3.97-1.1-3.97-2.44,1.78-2.44,3.97-2.44Z"/>
  <path class="st0" d="M126.3,92.97c0,6.79-5.5,12.29-12.29,12.29s-12.29-5.5-12.29-12.29,5.5-12.29,12.29-12.29,12.29,5.5,12.29,12.29ZM118.95,83.33c-2.28-1.48-6.34,1.64-9.07,6.96-2.73,5.32-3.1,10.84-.82,12.32,2.28,1.48,6.34-1.64,9.07-6.96s3.1-10.84.82-12.32Z"/>
</svg>